<mxfile host="65bd71144e">
    <diagram id="WXvPM8-C18YLt_qR4vDH" name="Page-1">
        <mxGraphModel dx="1037" dy="578" grid="1" gridSize="10" guides="1" tooltips="1" connect="1" arrows="1" fold="1" page="1" pageScale="1" pageWidth="827" pageHeight="1169" math="0" shadow="0">
            <root>
                <mxCell id="0"/>
                <mxCell id="1" parent="0"/>
                <mxCell id="9LL2qOKCbG1ECaGXMQAB-1" value="" style="rounded=0;whiteSpace=wrap;html=1;" parent="1" vertex="1">
                    <mxGeometry x="20" y="20" width="790" height="660" as="geometry"/>
                </mxCell>
                <mxCell id="9LL2qOKCbG1ECaGXMQAB-2" value="Data cells" style="rounded=0;whiteSpace=wrap;html=1;" parent="1" vertex="1">
                    <mxGeometry x="30" y="30" width="330" height="520" as="geometry"/>
                </mxCell>
                <mxCell id="9LL2qOKCbG1ECaGXMQAB-3" value="Settings" style="rounded=0;whiteSpace=wrap;html=1;" parent="1" vertex="1">
                    <mxGeometry x="370" y="30" width="430" height="90" as="geometry"/>
                </mxCell>
                <mxCell id="9LL2qOKCbG1ECaGXMQAB-4" value="Source code editor" style="rounded=0;whiteSpace=wrap;html=1;" parent="1" vertex="1">
                    <mxGeometry x="370" y="130" width="430" height="420" as="geometry"/>
                </mxCell>
                <mxCell id="9LL2qOKCbG1ECaGXMQAB-5" value="Operation details" style="rounded=0;whiteSpace=wrap;html=1;" parent="1" vertex="1">
                    <mxGeometry x="370" y="560" width="430" height="110" as="geometry"/>
                </mxCell>
                <mxCell id="2" value="Output buffer" style="rounded=0;whiteSpace=wrap;html=1;" parent="1" vertex="1">
                    <mxGeometry x="30" y="560" width="330" height="110" as="geometry"/>
                </mxCell>
            </root>
        </mxGraphModel>
    </diagram>
</mxfile>